<svg width="1244" height="288" fill="none" xmlns="http://www.w3.org/2000/svg">
    <mask id="a" style="mask-type:alpha" maskUnits="userSpaceOnUse" x="0" y="0" width="1244" height="288">
        <rect width="1244" height="288" rx="16" fill="#C4C4C4"/>
    </mask>
    <g mask="url(#a)">
        <rect width="1244" height="288" rx="16" fill="url(#paint0_linear_164_3305)"/>
        <path opacity=".15"
              d="M835.425 237.614c-132.038-84.638-314.004 14.266-458.214-52.715-75.033-34.85-90.25-66.298-144.093-118.285-34.535-33.346-37.827-39.15-70.605-63-32.779-23.85-92.22-51.429-92.22-51.429v-87.429H1622.17v582.429h-370.32s-197.79 2.749-292.505-69.429c-57.608-43.899-56.328-96.816-123.92-140.142z"
              fill="#fff"/>
        <path opacity=".15"
              d="M875.193 188.378c-132.039-84.638-314.004 36.124-458.215-30.857C341.945 122.671 302.665-.836 280.811-37.336c-11.975-20-30.259-38-59.958-52-29.7-14-110.792-7.715-110.792-7.715v-87.428H1661.94v545.857h-347.26s-243.52 7-322.772-43.143c-69.164-43.761-49.123-86.53-116.715-129.857z"
              fill="#fff"/>
    </g>
    <defs>
        <linearGradient id="paint0_linear_164_3305" x1="101.88" y1="120.466" x2="919.069" y2="369.873"
                        gradientUnits="userSpaceOnUse">
            <stop stop-color="#4776E6"/>
            <stop offset="1" stop-color="#8E54E9"/>
        </linearGradient>
    </defs>
</svg>