<svg width="288" height="530" fill="none" xmlns="http://www.w3.org/2000/svg">
    <mask id="a" style="mask-type:alpha" maskUnits="userSpaceOnUse" x="0" y="0" width="288" height="530">
        <rect width="288" height="530" rx="16" fill="#C4C4C4"/>
    </mask>
    <g mask="url(#a)">
        <rect width="288" height="530" rx="16" fill="url(#paint0_linear_164_1794)"/>
        <path opacity=".15"
              d="M213.799 285.685c-52.08-74.27-123.852 12.519-180.733-46.257-29.595-30.581-35.597-58.177-56.834-103.796-13.622-29.26-14.92-34.354-27.85-55.282C-64.545 59.42-87.99 35.22-87.99 35.22v-76.719h612.106v511.082H378.051s-78.015 2.412-115.374-60.924c-22.723-38.522-22.218-84.956-48.878-122.975z"
              fill="#fff"/>
        <path opacity=".15"
              d="M229.485 242.481c-52.08-74.27-123.853 31.699-180.733-27.077C19.156 184.823 3.663 76.445-4.957 44.417c-4.723-17.55-11.935-33.345-23.65-45.63-11.713-12.285-43.699-6.77-43.699-6.77V-84.7h612.107v478.989H402.83s-96.05 6.143-127.309-37.857c-27.281-38.401-19.376-75.931-46.036-113.95z"
              fill="#fff"/>
    </g>
    <defs>
        <linearGradient id="paint0_linear_164_1794" x1="23.586" y1="221.691" x2="230.093" y2="229.62"
                        gradientUnits="userSpaceOnUse">
            <stop stop-color="#4776E6"/>
            <stop offset="1" stop-color="#8E54E9"/>
        </linearGradient>
    </defs>
</svg>