<svg width="92" height="24" fill="none" xmlns="http://www.w3.org/2000/svg"><path d="M10.272 23.755v-3.657H0V15.95L7.45.245h5.12L5.12 15.95h5.152v-5.878h4.53v5.878h2.1v4.147h-2.1v3.657h-4.53z" fill="url(#paint0_linear_164_3296)"/><path d="M20.9 23.51V0h14.44v4.44h-9.978v5.095h8.008v4.44h-8.007v9.535h-4.464zm21.684.49c-1.27 0-2.347-.24-3.233-.718-.875-.49-1.542-1.138-2.002-1.943a5.502 5.502 0 01-.673-2.694c0-.816.126-1.562.378-2.237a4.547 4.547 0 011.214-1.78c.569-.522 1.33-.957 2.281-1.306a16.621 16.621 0 012.346-.636c.908-.185 1.937-.36 3.085-.523l3.791-.571-1.608.881c0-1.044-.252-1.812-.755-2.302s-1.346-.734-2.527-.734c-.656 0-1.34.158-2.051.473-.711.316-1.209.876-1.493 1.682L37.3 10.318a6.814 6.814 0 012.527-3.559c1.236-.914 2.92-1.371 5.054-1.371 1.564 0 2.954.24 4.168.718 1.214.479 2.133 1.306 2.757 2.482.35.653.558 1.306.623 1.959.066.653.099 1.382.099 2.188V23.51h-3.906v-3.624l.558.75c-.864 1.187-1.8 2.047-2.806 2.58-.995.523-2.259.784-3.79.784zm.951-3.494c.82 0 1.51-.141 2.068-.424.569-.294 1.017-.626 1.346-.996.339-.37.568-.68.689-.93.23-.48.36-1.035.394-1.666.043-.642.065-1.176.065-1.6l1.313.326a165.07 165.07 0 00-3.216.555c-.82.142-1.483.273-1.986.392-.503.12-.946.25-1.329.392a4.585 4.585 0 00-1.066.572 2.06 2.06 0 00-.591.653c-.12.239-.18.506-.18.8 0 .402.098.75.295 1.045.207.282.497.5.87.653.371.152.814.228 1.328.228zm25.336 3.004v-8.326c0-.403-.021-.915-.065-1.535a6.918 6.918 0 00-.41-1.894 3.571 3.571 0 00-1.133-1.584c-.514-.424-1.247-.636-2.198-.636-.383 0-.793.06-1.231.18a2.986 2.986 0 00-1.23.701c-.384.338-.7.838-.953 1.502-.24.664-.36 1.546-.36 2.645l-2.56-1.208c0-1.393.284-2.7.853-3.918a7.057 7.057 0 012.56-2.955c1.148-.751 2.592-1.127 4.332-1.127 1.39 0 2.521.234 3.397.702.875.468 1.553 1.061 2.034 1.78a7.27 7.27 0 011.05 2.253c.208.773.334 1.48.378 2.122.044.642.065 1.11.065 1.404v9.894h-4.529zm-12.11 0V5.878h3.972v5.844h.558V23.51h-4.53zm27.822.49c-2.232 0-4.037-.5-5.415-1.502-1.367-1.012-2.199-2.438-2.494-4.278l4.562-.685c.186.827.596 1.474 1.23 1.943.646.468 1.46.702 2.445.702.81 0 1.433-.153 1.87-.457.438-.316.657-.752.657-1.307 0-.348-.087-.625-.262-.832-.175-.218-.57-.43-1.182-.637-.601-.207-1.542-.479-2.822-.816-1.444-.37-2.598-.784-3.462-1.241-.865-.457-1.488-1.002-1.871-1.633-.383-.642-.574-1.415-.574-2.318 0-1.132.29-2.112.87-2.939.579-.838 1.394-1.48 2.444-1.927 1.061-.457 2.308-.685 3.742-.685 1.389 0 2.62.212 3.692.636 1.072.425 1.936 1.03 2.592 1.813.667.783 1.078 1.709 1.23 2.775l-4.56.817c-.077-.654-.362-1.17-.854-1.551s-1.16-.605-2.002-.67c-.82-.054-1.482.055-1.986.327-.492.272-.738.664-.738 1.175 0 .305.104.56.312.768.219.206.662.419 1.329.636.678.218 1.707.501 3.085.85 1.345.348 2.423.756 3.232 1.224.821.457 1.417 1.012 1.79 1.665.371.642.557 1.42.557 2.335 0 1.807-.656 3.227-1.97 4.261C88.719 23.483 86.903 24 84.584 24z" fill="#1A051D"/><defs><linearGradient id="paint0_linear_164_3296" x1="1.384" y1="10.079" x2="13.49" y2="10.694" gradientUnits="userSpaceOnUse"><stop stop-color="#4776E6"/><stop offset="1" stop-color="#8E54E9"/></linearGradient></defs></svg>