<svg width="35" height="24" fill="none" xmlns="http://www.w3.org/2000/svg"><path d="M0 2.468V.172h11.324c3.119 0 4.713 1.37 4.713 4.285v16.148c0 2.195-1.391 3.223-3.425 3.223h-3.12v-8.914H4.169c-1.526 0-2.78-1.166-2.78-2.949V9.946h8.24V5.52H3.392C1.119 5.52 0 3.837 0 2.468z" fill="#1A051D"/><path d="M26.95 16.148c-1.065 0-2.036-.067-2.819-.342V24H21.47c-1.566 0-3.289-1.2-3.289-4.046V.994C19.81.583 22.564 0 24.632 0h2.413C31.523 0 35 2.742 35 7.68c0 5.143-3.57 8.468-8.05 8.468zm-.438-11.005h-1.19c-.282 0-.91.103-1.19.171v5.28c.657.24 1.408.309 2.254.309 1.88 0 2.663-.96 2.663-2.675 0-2.468-1.003-3.085-2.537-3.085z" fill="url(#paint0_linear_164_3284)"/><defs><linearGradient id="paint0_linear_164_3284" x1="19.558" y1="10.039" x2="31.606" y2="10.636" gradientUnits="userSpaceOnUse"><stop stop-color="#4776E6"/><stop offset="1" stop-color="#8E54E9"/></linearGradient></defs></svg>