<svg width="526" height="99" viewBox="0 0 526 99" fill="none" xmlns="http://www.w3.org/2000/svg">
<path d="M0 13.8448V5.61499H41.0896C52.4072 5.61499 58.1892 10.5283 58.1892 20.9698V78.8364C58.1892 86.6995 53.1439 90.3851 45.763 90.3851H34.4455V58.4428H15.1239C9.58831 58.4428 5.03567 54.2652 5.03567 47.8758V40.6398H34.9382V24.7784H12.303C4.05994 24.7784 0 18.7484 0 13.8448Z" fill="#1A051D"/>
<path d="M97.7909 62.864C93.9266 62.864 90.4029 62.6228 87.5626 61.6363V91H77.9019C72.219 91 65.9685 86.6994 65.9685 76.5014V8.56253C71.8785 7.0888 81.8749 5 89.3813 5H98.1339C114.386 5 127 14.8265 127 32.5186C127 50.9487 114.045 62.864 97.7909 62.864ZM96.2017 23.4277H91.881C90.8594 23.4277 88.5843 23.7967 87.5626 24.0428V42.9625C89.9488 43.8212 92.6756 44.0672 95.7453 44.0672C102.566 44.0672 105.406 40.6277 105.406 34.4843C105.406 25.6395 101.769 23.4277 96.2017 23.4277Z" fill="url(#paint0_linear_164_5762)"/>
<path d="M164.6 79V21.4H199.8V32.28H175.48V44.76H195V55.64H175.48V79H164.6ZM217.459 80.2C214.366 80.2 211.739 79.6133 209.579 78.44C207.446 77.24 205.819 75.6533 204.699 73.68C203.606 71.68 203.059 69.48 203.059 67.08C203.059 65.08 203.366 63.2533 203.979 61.6C204.593 59.9467 205.579 58.4933 206.939 57.24C208.326 55.96 210.179 54.8933 212.499 54.04C214.099 53.4533 216.006 52.9333 218.219 52.48C220.433 52.0267 222.939 51.6 225.739 51.2C228.539 50.7733 231.619 50.3067 234.979 49.8L231.059 51.96C231.059 49.4 230.446 47.52 229.219 46.32C227.993 45.12 225.939 44.52 223.059 44.52C221.459 44.52 219.793 44.9067 218.059 45.68C216.326 46.4533 215.113 47.8267 214.419 49.8L204.579 46.68C205.673 43.1067 207.726 40.2 210.739 37.96C213.753 35.72 217.859 34.6 223.059 34.6C226.873 34.6 230.259 35.1867 233.219 36.36C236.179 37.5333 238.419 39.56 239.939 42.44C240.793 44.04 241.299 45.64 241.459 47.24C241.619 48.84 241.699 50.6267 241.699 52.6V79H232.179V70.12L233.539 71.96C231.433 74.8667 229.153 76.9733 226.699 78.28C224.273 79.56 221.193 80.2 217.459 80.2ZM219.779 71.64C221.779 71.64 223.459 71.2933 224.819 70.6C226.206 69.88 227.299 69.0667 228.099 68.16C228.926 67.2533 229.486 66.4933 229.779 65.88C230.339 64.7067 230.659 63.3467 230.739 61.8C230.846 60.2267 230.899 58.92 230.899 57.88L234.099 58.68C230.873 59.2133 228.259 59.6667 226.259 60.04C224.259 60.3867 222.646 60.7067 221.419 61C220.193 61.2933 219.113 61.6133 218.179 61.96C217.113 62.3867 216.246 62.8533 215.579 63.36C214.939 63.84 214.459 64.3733 214.139 64.96C213.846 65.5467 213.699 66.2 213.699 66.92C213.699 67.9067 213.939 68.76 214.419 69.48C214.926 70.1733 215.633 70.7067 216.539 71.08C217.446 71.4533 218.526 71.64 219.779 71.64ZM281.54 79V58.6C281.54 57.6133 281.487 56.36 281.38 54.84C281.273 53.2933 280.94 51.7467 280.38 50.2C279.82 48.6533 278.9 47.36 277.62 46.32C276.367 45.28 274.58 44.76 272.26 44.76C271.327 44.76 270.327 44.9067 269.26 45.2C268.193 45.4933 267.193 46.0667 266.26 46.92C265.327 47.7467 264.553 48.9733 263.94 50.6C263.353 52.2267 263.06 54.3867 263.06 57.08L256.82 54.12C256.82 50.7067 257.513 47.5067 258.9 44.52C260.287 41.5333 262.367 39.12 265.14 37.28C267.94 35.44 271.46 34.52 275.7 34.52C279.087 34.52 281.847 35.0933 283.98 36.24C286.113 37.3867 287.767 38.84 288.94 40.6C290.14 42.36 290.993 44.2 291.5 46.12C292.007 48.0133 292.313 49.7467 292.42 51.32C292.527 52.8933 292.58 54.04 292.58 54.76V79H281.54ZM252.02 79V35.8H261.7V50.12H263.06V79H252.02ZM319.839 80.2C314.399 80.2 309.999 78.9733 306.639 76.52C303.306 74.04 301.279 70.5467 300.559 66.04L311.679 64.36C312.133 66.3867 313.133 67.9733 314.679 69.12C316.253 70.2667 318.239 70.84 320.639 70.84C322.613 70.84 324.133 70.4667 325.199 69.72C326.266 68.9467 326.799 67.88 326.799 66.52C326.799 65.6667 326.586 64.9867 326.159 64.48C325.733 63.9467 324.773 63.4267 323.279 62.92C321.813 62.4133 319.519 61.7467 316.399 60.92C312.879 60.0133 310.066 59 307.959 57.88C305.853 56.76 304.333 55.4267 303.399 53.88C302.466 52.3067 301.999 50.4133 301.999 48.2C301.999 45.4267 302.706 43.0267 304.119 41C305.533 38.9467 307.519 37.3733 310.079 36.28C312.666 35.16 315.706 34.6 319.199 34.6C322.586 34.6 325.586 35.12 328.199 36.16C330.813 37.2 332.919 38.68 334.519 40.6C336.146 42.52 337.146 44.7867 337.519 47.4L326.399 49.4C326.213 47.8 325.519 46.5333 324.319 45.6C323.119 44.6667 321.493 44.12 319.439 43.96C317.439 43.8267 315.826 44.0933 314.599 44.76C313.399 45.4267 312.799 46.3867 312.799 47.64C312.799 48.3867 313.053 49.0133 313.559 49.52C314.093 50.0267 315.173 50.5467 316.799 51.08C318.453 51.6133 320.959 52.3067 324.319 53.16C327.599 54.0133 330.226 55.0133 332.199 56.16C334.199 57.28 335.653 58.64 336.559 60.24C337.466 61.8133 337.919 63.72 337.919 65.96C337.919 70.3867 336.319 73.8667 333.119 76.4C329.919 78.9333 325.493 80.2 319.839 80.2Z" fill="#1A051D"/>
<path d="M346.709 79V21.4H371.029C371.589 21.4 372.336 21.4267 373.269 21.48C374.229 21.5067 375.083 21.5867 375.829 21.72C379.269 22.2533 382.083 23.3867 384.269 25.12C386.483 26.8533 388.109 29.04 389.149 31.68C390.189 34.2933 390.709 37.2133 390.709 40.44C390.709 43.6667 390.176 46.6 389.109 49.24C388.069 51.8533 386.443 54.0267 384.229 55.76C382.043 57.4933 379.243 58.6267 375.829 59.16C375.083 59.2667 374.229 59.3467 373.269 59.4C372.309 59.4533 371.563 59.48 371.029 59.48H357.589V79H346.709ZM357.589 49.32H370.549C371.109 49.32 371.723 49.2933 372.389 49.24C373.056 49.1867 373.669 49.08 374.229 48.92C375.696 48.52 376.829 47.8533 377.629 46.92C378.429 45.96 378.976 44.9067 379.269 43.76C379.589 42.5867 379.749 41.48 379.749 40.44C379.749 39.4 379.589 38.3067 379.269 37.16C378.976 35.9867 378.429 34.9333 377.629 34C376.829 33.04 375.696 32.36 374.229 31.96C373.669 31.8 373.056 31.6933 372.389 31.64C371.723 31.5867 371.109 31.56 370.549 31.56H357.589V49.32ZM409.881 80.2C406.788 80.2 404.161 79.6133 402.001 78.44C399.868 77.24 398.241 75.6533 397.121 73.68C396.028 71.68 395.481 69.48 395.481 67.08C395.481 65.08 395.788 63.2533 396.401 61.6C397.015 59.9467 398.001 58.4933 399.361 57.24C400.748 55.96 402.601 54.8933 404.921 54.04C406.521 53.4533 408.428 52.9333 410.641 52.48C412.855 52.0267 415.361 51.6 418.161 51.2C420.961 50.7733 424.041 50.3067 427.401 49.8L423.481 51.96C423.481 49.4 422.868 47.52 421.641 46.32C420.415 45.12 418.361 44.52 415.481 44.52C413.881 44.52 412.215 44.9067 410.481 45.68C408.748 46.4533 407.535 47.8267 406.841 49.8L397.001 46.68C398.095 43.1067 400.148 40.2 403.161 37.96C406.175 35.72 410.281 34.6 415.481 34.6C419.295 34.6 422.681 35.1867 425.641 36.36C428.601 37.5333 430.841 39.56 432.361 42.44C433.215 44.04 433.721 45.64 433.881 47.24C434.041 48.84 434.121 50.6267 434.121 52.6V79H424.601V70.12L425.961 71.96C423.855 74.8667 421.575 76.9733 419.121 78.28C416.695 79.56 413.615 80.2 409.881 80.2ZM412.201 71.64C414.201 71.64 415.881 71.2933 417.241 70.6C418.628 69.88 419.721 69.0667 420.521 68.16C421.348 67.2533 421.908 66.4933 422.201 65.88C422.761 64.7067 423.081 63.3467 423.161 61.8C423.268 60.2267 423.321 58.92 423.321 57.88L426.521 58.68C423.295 59.2133 420.681 59.6667 418.681 60.04C416.681 60.3867 415.068 60.7067 413.841 61C412.615 61.2933 411.535 61.6133 410.601 61.96C409.535 62.3867 408.668 62.8533 408.001 63.36C407.361 63.84 406.881 64.3733 406.561 64.96C406.268 65.5467 406.121 66.2 406.121 66.92C406.121 67.9067 406.361 68.76 406.841 69.48C407.348 70.1733 408.055 70.7067 408.961 71.08C409.868 71.4533 410.948 71.64 412.201 71.64ZM447.62 98.2L455.94 75.32L456.1 82.04L437.3 35.8H448.58L461.22 68.52H458.66L471.22 35.8H482.1L457.7 98.2H447.62ZM504.605 80.2C499.165 80.2 494.765 78.9733 491.405 76.52C488.072 74.04 486.045 70.5467 485.325 66.04L496.445 64.36C496.898 66.3867 497.898 67.9733 499.445 69.12C501.018 70.2667 503.005 70.84 505.405 70.84C507.378 70.84 508.898 70.4667 509.965 69.72C511.032 68.9467 511.565 67.88 511.565 66.52C511.565 65.6667 511.352 64.9867 510.925 64.48C510.498 63.9467 509.538 63.4267 508.045 62.92C506.578 62.4133 504.285 61.7467 501.165 60.92C497.645 60.0133 494.832 59 492.725 57.88C490.618 56.76 489.098 55.4267 488.165 53.88C487.232 52.3067 486.765 50.4133 486.765 48.2C486.765 45.4267 487.472 43.0267 488.885 41C490.298 38.9467 492.285 37.3733 494.845 36.28C497.432 35.16 500.472 34.6 503.965 34.6C507.352 34.6 510.352 35.12 512.965 36.16C515.578 37.2 517.685 38.68 519.285 40.6C520.912 42.52 521.912 44.7867 522.285 47.4L511.165 49.4C510.978 47.8 510.285 46.5333 509.085 45.6C507.885 44.6667 506.258 44.12 504.205 43.96C502.205 43.8267 500.592 44.0933 499.365 44.76C498.165 45.4267 497.565 46.3867 497.565 47.64C497.565 48.3867 497.818 49.0133 498.325 49.52C498.858 50.0267 499.938 50.5467 501.565 51.08C503.218 51.6133 505.725 52.3067 509.085 53.16C512.365 54.0133 514.992 55.0133 516.965 56.16C518.965 57.28 520.418 58.64 521.325 60.24C522.232 61.8133 522.685 63.72 522.685 65.96C522.685 70.3867 521.085 73.8667 517.885 76.4C514.685 78.9333 510.258 80.2 504.605 80.2Z" fill="url(#paint1_linear_164_5762)"/>
<defs>
<linearGradient id="paint0_linear_164_5762" x1="70.9668" y1="40.9725" x2="114.683" y2="43.1646" gradientUnits="userSpaceOnUse">
<stop stop-color="#4776E6"/>
<stop offset="1" stop-color="#8E54E9"/>
</linearGradient>
<linearGradient id="paint1_linear_164_5762" x1="189.056" y1="40.1554" x2="434.675" y2="106.501" gradientUnits="userSpaceOnUse">
<stop stop-color="#4776E6"/>
<stop offset="1" stop-color="#8E54E9"/>
</linearGradient>
</defs>
</svg>
