<svg width="526" height="99" viewBox="0 0 526 99" fill="none" xmlns="http://www.w3.org/2000/svg">
    <path d="M0 13.8448V5.61499H41.0896C52.4072 5.61499 58.1892 10.5283 58.1892 20.9698V78.8364C58.1892 86.6995 53.1439 90.3851 45.763 90.3851H34.4455V58.4428H15.1239C9.58831 58.4428 5.03567 54.2652 5.03567 47.8758V40.6398H34.9382V24.7784H12.303C4.05994 24.7784 0 18.7484 0 13.8448Z" fill="#1A051D"/>
    <path d="M97.7909 62.864C93.9266 62.864 90.4029 62.6228 87.5626 61.6363V91H77.9019C72.219 91 65.9685 86.6994 65.9685 76.5014V8.56253C71.8785 7.0888 81.8749 5 89.3813 5H98.1339C114.386 5 127 14.8265 127 32.5186C127 50.9487 114.045 62.864 97.7909 62.864ZM96.2017 23.4277H91.881C90.8594 23.4277 88.5843 23.7967 87.5626 24.0428V42.9625C89.9488 43.8212 92.6756 44.0672 95.7453 44.0672C102.566 44.0672 105.406 40.6277 105.406 34.4843C105.406 25.6395 101.769 23.4277 96.2017 23.4277Z" fill="url(#paint0_linear_164_5762)"/>
    <defs>
        <linearGradient id="paint0_linear_164_5762" x1="70.9668" y1="40.9725" x2="114.683" y2="43.1646" gradientUnits="userSpaceOnUse">
            <stop stop-color="#4776E6"/>
            <stop offset="1" stop-color="#8E54E9"/>
        </linearGradient>
        <linearGradient id="paint1_linear_164_5762" x1="189.056" y1="40.1554" x2="434.675" y2="106.501" gradientUnits="userSpaceOnUse">
            <stop stop-color="#4776E6"/>
            <stop offset="1" stop-color="#8E54E9"/>
        </linearGradient>
    </defs>
</svg>
