<svg width="24" height="24" viewBox="0 0 24 24" fill="none" xmlns="http://www.w3.org/2000/svg">
<path d="M9.5 16C13.0899 16 16 13.0899 16 9.5C16 9.03429 15.951 8.58002 15.8579 8.14206C15.2335 5.20406 12.6241 3 9.5 3C5.91015 3 3 5.91015 3 9.5C3 10.5377 3.24318 11.5186 3.67565 12.3889L3 16L6.61111 15.3243C7.09081 15.5627 7.60413 15.7436 8.14206 15.8579C8.58002 15.951 9.03429 16 9.5 16Z" stroke="#5D5E65" stroke-width="2" stroke-linecap="round" stroke-linejoin="round"/>
<path d="M8.14209 15.858C8.76653 18.796 11.3759 21 14.5 21C15.5377 21 16.5187 20.7569 17.3889 20.3244L21 21L20.3244 17.3889C20.7569 16.5187 21 15.5377 21 14.5C21 11.3759 18.796 8.76653 15.858 8.14209" stroke="#5D5E65" stroke-width="2" stroke-linecap="round" stroke-linejoin="round"/>
</svg>
