<svg width="22" height="22" viewBox="0 0 22 22" fill="none" xmlns="http://www.w3.org/2000/svg">
    <path d="M19.25 0.5H2.75C2.15326 0.5 1.58097 0.737053 1.15901 1.15901C0.737053 1.58097 0.5 2.15326 0.5 2.75L0.5 19.25C0.5 19.8467 0.737053 20.419 1.15901 20.841C1.58097 21.2629 2.15326 21.5 2.75 21.5H9.18359V14.3605H6.23047V11H9.18359V8.43875C9.18359 5.52547 10.918 3.91625 13.5744 3.91625C14.8466 3.91625 16.1769 4.14313 16.1769 4.14313V7.0025H14.7111C13.2669 7.0025 12.8164 7.89875 12.8164 8.81797V11H16.0405L15.5248 14.3605H12.8164V21.5H19.25C19.8467 21.5 20.419 21.2629 20.841 20.841C21.2629 20.419 21.5 19.8467 21.5 19.25V2.75C21.5 2.15326 21.2629 1.58097 20.841 1.15901C20.419 0.737053 19.8467 0.5 19.25 0.5Z"
          fill="#4267B2"/>
    <path d="M19.25 0.5H2.75C2.15326 0.5 1.58097 0.737053 1.15901 1.15901C0.737053 1.58097 0.5 2.15326 0.5 2.75L0.5 19.25C0.5 19.8467 0.737053 20.419 1.15901 20.841C1.58097 21.2629 2.15326 21.5 2.75 21.5H9.18359V14.3605H6.23047V11H9.18359V8.43875C9.18359 5.52547 10.918 3.91625 13.5744 3.91625C14.8466 3.91625 16.1769 4.14313 16.1769 4.14313V7.0025H14.7111C13.2669 7.0025 12.8164 7.89875 12.8164 8.81797V11H16.0405L15.5248 14.3605H12.8164V21.5H19.25C19.8467 21.5 20.419 21.2629 20.841 20.841C21.2629 20.419 21.5 19.8467 21.5 19.25V2.75C21.5 2.15326 21.2629 1.58097 20.841 1.15901C20.419 0.737053 19.8467 0.5 19.25 0.5Z"
          fill="#5D5E65"/>
</svg>
