<svg xmlns="http://www.w3.org/2000/svg" xmlns:xlink="http://www.w3.org/1999/xlink" viewBox="0 0 91 101" fill="#fff" fill-rule="evenodd" stroke="#000" stroke-linecap="round" stroke-linejoin="round"><use xlink:href="#A" href="#A" x=".5" y=".5"/><symbol id="A" overflow="visible"><g stroke="none"><path d="M36.734 3.577C38.952-.466 56.65-4.029 63.87 10.338s3.585 19.403 7.567 24.47.234 16.711-2.535 17.73-1.656 5.047-.308 6.777c5.76 7.38-2.569 19.828-24.811 19.7-23.775-.138-28.435-14.608-22.344-19.122 1.988-1.474 2.76-4.299.581-6.792s-7.196-11.772-2.443-19.378.572-30.157 17.156-30.147z" fill="#806049"/><path d="M53.505 62.729c-.176.287-17.366.573-17.556.86C30.55 71.66 18.885 75.192 9.604 77.367S.02 91.811 0 100h90c0-8.189-.186-20.427-9.604-22.633s-21.767-6.203-26.891-14.638z" fill="#c93838"/></g><g stroke="none"><path fill="#f5d5c1" d="M54.017 57.031v11.604c-5.408 9.935-13.517 9.684-18.035 0V57c-3.165-2.678-6.377-6.439-8.834-10.98-.267.481-.624.844-1.068 1.052-1.817.85-4.348-1.233-5.686-4.658s-.982-6.904.84-7.734c.625-.294 1.338-.237 2.06.107-1.972-13.657 5.213-30.878 21.725-30.878s23.693 17.214 21.726 30.87c.715-.336 1.421-.39 2.039-.098 1.803.829 2.184 4.31.845 7.734s-3.869 5.507-5.686 4.658c-.441-.206-.795-.566-1.061-1.041-2.466 4.554-5.691 8.323-8.865 11.001z"/><path d="M40.823 21.281c-4.396 9.607-6.15 12.443-11.963 9.909s-4.709 4.571-3.654 9.643c-5.149-6.848-4.543-13.354-2.931-19.961 1.754-7.247 10.61-18.272 18.914-18.073 4.514-.512 11.343.092 18.607 5.574 12.701 9.581 8.451 31.104 5.031 33.637 3.312-19.936-4.797-15.867-10.385-26.303-1.851-4.591-8.866-4.873-13.619 5.574z" fill="#80604a"/><path d="M54.795 45.193c.176 0 .361 0 .547-.031 5.119-.45 6.38-2.856 6.951-5.901.635-3.342.674-4.504 1.5-4.811.601-.23.752-.972.733-1.848s-.049-.962-1.045-1.326c-.791-.292-5.159-.706-8.436-.512v.901c2.584-.148 5.071.179 5.793.665 1.641 1.116 1.163 6.495-.22 9.162-.977 1.853-3.502 2.789-5.799 2.83zM45.23 32.546c-1.128.031-5.75-1.367-9.037-1.663-.235 0-.489-.041-.723-.056v.901c2.672.128 5.437.762 6.384 2.257 1.554 2.452-1.241 8.45-3.766 9.786a6.38 6.38 0 0 1-2.843.624v.85c4.426 0 6.062-3.337 6.604-4.453 1.031-2.099.816-4.996 3.351-5.001s2.198 2.836 3.102 4.934c.488 1.131 1.925 4.606 6.516 4.468v-.844a6.26 6.26 0 0 1-2.999-.609c-2.442-1.326-4.885-7.304-3.199-9.766 1.021-1.484 3.771-2.134 6.419-2.283v-.901l-.596.046c-2.96.281-6.551 1.638-9.213 1.71zm-9.77-1.72c-3.244-.179-7.547.246-8.339.512-1.021.368-1.05.466-1.124 1.336s.039 1.617.625 1.842c.806.302.781 1.469 1.221 4.806.396 3.04 1.514 5.441 6.609 5.865.259 0 .488.031.757.036v-.85c-2.34 0-4.944-.906-5.823-2.805-1.231-2.662-1.402-8.036.313-9.162.738-.486 3.195-.824 5.73-.701z" fill="#4f4f4f"/><path fill="#000" d="M54.048 57.007l-.03.578s-5.823 5.988-9.101 5.988-8.934-5.922-8.934-5.922v-.645c3.403 2.871 6.743 4.494 9.037 4.494 2.287 0 5.613-1.614 8.998-4.469l.03-.025z" fill-opacity=".2"/></g></symbol></svg>