<svg xmlns:xlink="http://www.w3.org/1999/xlink" xmlns="http://www.w3.org/2000/svg" viewBox="0 0 91 101" fill="#fff"
     fill-rule="evenodd" stroke="#000" stroke-linecap="round" stroke-linejoin="round">
    <use xlink:href="#A" href="#A" x=".5" y=".5"/>
    <symbol id="A" overflow="visible">
        <path d="M36.005 60.254c-19.89 8.487-25.853 13.01-28.216 15.043C4.156 78.427 2.145 90.097 0 100h90c-2.141-9.921-4.17-21.573-7.788-24.702-2.358-2.034-8.103-6.439-27.994-14.926z"
              fill="#c93838" stroke="none"/>
        <g stroke="none">
            <path fill="#f6c8ac"
                  d="M35.36 53.742c-3.038-2.188-5.709-4.693-6.727-6.285-.472-.738-1.503-3.642-2.366-7.613-1.108-.683-2.146-2.066-2.74-3.823-.971-2.871-.379-5.623 1.328-6.17l.075-.022c-.534-11.762 2.901-25.017 20.086-25.017 17.209 0 20.634 13.275 20.091 25.044 1.662.59 2.229 3.312 1.268 6.15-.566 1.673-1.535 3.007-2.582 3.72-.869 4.031-1.917 6.985-2.394 7.73-1.018 1.591-3.687 4.094-6.723 6.281v11.053c-5.314 6.313-14.006 6.11-19.316 0z"/>
            <g fill="#605343">
                <path d="M54.13 45.959c-.686-1.407-6.227-3.314-7.223-3.671s-1.705.902-1.705.902-.709-1.245-1.705-.902-6.537 2.255-7.223 3.671-1.019 2.381-1.019 3.346v4.392c.541.034 1.08-.09 1.547-.356.565-.415 1.209-1.601 1.209-3.075.011-1.419 1.038-2.638 2.465-2.927 1.427-.28 4.726-.816 4.726-1.691 0 .87 3.526 1.479 4.726 1.691 1.433.279 2.465 1.504 2.465 2.927 0 1.475.644 2.656 1.209 3.075.468.266 1.007.39 1.547.356V49.31c0-.965-.329-1.939-1.019-3.35z"/>
                <path d="M64.613 35.154c1.271-8.857.426-16.809 2.309-23.082-4.772-6.403-25.33-17.627-35.815-8.838-10.953 2.426-8.038 24.797-6.477 30.443.065.496.148.988.213 1.438.006.334.05.667.13.992a2.78 2.78 0 0 0 .161.255c-.038.721-.041 1.31-.041 1.31.899 4.577 1.534 7.598 3.383 10.11 2.951 4.013 11.282 10.371 16.337 10.371s13.39-6.345 16.337-10.371c1.853-2.534 2.372-5.907 3.396-10.66a18.59 18.59 0 0 0 .068-1.967zm-.989 1.096c-.056-.807-.02-2.398-.02-2.416.111-1.258-.074-2.534.116-3.765-.964-5.763-.185-6.006-3.503-11.76a23.49 23.49 0 0 0-2.316-2.629c-5.532-1.925-7.46 1.281-12.681 3.305-1.997.776-5.004.825-7.214.825-3.442 0-6.774-3.608-6.843-4.343-4.137 6.074-4.559 10.412-5.773 15.629.167.902.348 1.804.426 2.742l.012.439a9.94 9.94 0 0 1 .136.887c.056.749 3.29 9.975 5.055 12.022 4.457 5.159 10.068 8.144 13.988 8.117s9.674-3.301 14.085-8.595c1.756-2.108 3.714-7.94 4.533-10.458z"/>
            </g>
            <path fill="#000"
                  d="M35.361 54.131c3.216 2.257 6.789 4.022 9.452 4.022 2.776 0 6.541-1.913 9.86-4.305v.941s-4.971 5.722-9.674 5.519-9.637-5.903-9.637-5.903z"
                  fill-opacity=".2"/>
        </g>
    </symbol>
</svg>