<svg width="40" height="40" viewBox="0 0 40 40" fill="none" xmlns="http://www.w3.org/2000/svg">
<circle cx="20" cy="20.0002" r="20" fill="#F7F5F9"/>
<path d="M17.5 24.0002C21.0899 24.0002 24 21.0901 24 17.5002C24 17.0345 23.951 16.5803 23.8579 16.1423C23.2335 13.2043 20.6241 11.0002 17.5 11.0002C13.9101 11.0002 11 13.9104 11 17.5002C11 18.538 11.2432 19.5189 11.6757 20.3891L11 24.0002L14.6111 23.3246C15.0908 23.563 15.6041 23.7439 16.1421 23.8582C16.58 23.9513 17.0343 24.0002 17.5 24.0002Z" stroke="#5D5E65" stroke-width="2" stroke-linecap="round" stroke-linejoin="round"/>
<path d="M16.1421 23.8582C16.7665 26.7962 19.3759 29.0003 22.5 29.0003C23.5377 29.0003 24.5187 28.7571 25.3889 28.3246L29 29.0003L28.3244 25.3892C28.7569 24.5189 29 23.538 29 22.5003C29 19.3761 26.796 16.7668 23.858 16.1423" stroke="#5D5E65" stroke-width="2" stroke-linecap="round" stroke-linejoin="round"/>
</svg>
