<svg width="40" height="40" viewBox="0 0 40 40" fill="none" xmlns="http://www.w3.org/2000/svg">
    <path d="M10 20C12.7614 20 15 17.7614 15 15C15 17.7614 17.2386 20 20 20C22.7614 20 25 17.7614 25 15C25 17.7614 27.2386 20 30 20C31.2806 20 32.4487 19.5186 33.3333 18.7268C34.3562 17.8113 35 16.4808 35 15V5H5V15C5 16.4808 5.64375 17.8113 6.66667 18.7268C7.55126 19.5186 8.71941 20 10 20Z"
          stroke="url(#paint0_linear_171_2184)" stroke-width="3" stroke-linecap="round" stroke-linejoin="round"/>
    <path d="M6.66675 18.7268V35H33.3334V18.7268" stroke="url(#paint1_linear_171_2184)" stroke-width="3"
          stroke-linecap="round" stroke-linejoin="round"/>
    <defs>
        <linearGradient id="paint0_linear_171_2184" x1="7.45691" y1="11.2743" x2="28.5779" y2="14.259"
                        gradientUnits="userSpaceOnUse">
            <stop stop-color="#4776E6"/>
            <stop offset="1" stop-color="#8E54E9"/>
        </linearGradient>
        <linearGradient id="paint1_linear_171_2184" x1="8.85067" y1="25.5336" x2="27.7465" y2="27.7215"
                        gradientUnits="userSpaceOnUse">
            <stop stop-color="#4776E6"/>
            <stop offset="1" stop-color="#8E54E9"/>
        </linearGradient>
    </defs>
</svg>
