<svg width="24" height="16" viewBox="0 0 24 16" fill="none" xmlns="http://www.w3.org/2000/svg">
    <path d="M22.9022 2.50346C22.6404 1.51804 21.8694 0.741958 20.8903 0.478583C19.1157 0 11.9999 0 11.9999 0C11.9999 0 4.88403 0 3.1094 0.478583C2.13036 0.742 1.35928 1.51804 1.09757 2.50346C0.62207 4.28958 0.62207 8.01617 0.62207 8.01617C0.62207 8.01617 0.62207 11.7427 1.09757 13.5289C1.35928 14.5143 2.13036 15.258 3.1094 15.5214C4.88403 16 11.9999 16 11.9999 16C11.9999 16 19.1157 16 20.8903 15.5214C21.8694 15.258 22.6404 14.5143 22.9022 13.5289C23.3777 11.7427 23.3777 8.01617 23.3777 8.01617C23.3777 8.01617 23.3777 4.28958 22.9022 2.50346ZM9.67257 11.3996V4.63271L15.62 8.01625L9.67257 11.3996Z"
          fill="#FF0000"/>
</svg>
