<svg width="180" height="32" fill="none" xmlns="http://www.w3.org/2000/svg"><path d="M0 3.037V.21h14.15c3.898 0 5.889 1.687 5.889 5.272v19.869c0 2.7-1.738 3.965-4.28 3.965h-3.897V18.349H5.208c-1.906 0-3.474-1.434-3.474-3.628v-2.484h10.298V6.79H4.237C1.398 6.79 0 4.72 0 3.037z" fill="#1A051D"/><path d="M33.676 19.867c-1.33 0-2.544-.082-3.522-.421v10.082h-3.327c-1.957 0-4.11-1.477-4.11-4.978V1.223C24.754.717 28.196 0 30.78 0h3.015c5.596 0 9.94 3.374 9.94 9.448 0 6.328-4.46 10.42-10.059 10.42zm-.547-13.54h-1.488c-.352 0-1.135.127-1.487.211v6.496c.822.295 1.76.38 2.818.38 2.349 0 3.327-1.181 3.327-3.29 0-3.037-1.253-3.797-3.17-3.797z" fill="url(#paint0_linear_164_4878)"/><path d="M119.398 25.408V5.63h8.375c.193 0 .45.009.772.027.33.01.624.037.881.083 1.185.183 2.154.572 2.907 1.167a5.257 5.257 0 011.68 2.252c.359.898.538 1.9.538 3.008s-.184 2.115-.551 3.022a5.274 5.274 0 01-1.681 2.238c-.753.595-1.717.985-2.893 1.168a14.904 14.904 0 01-1.653.11h-4.628v6.702h-3.747zm3.747-10.19h4.463c.193 0 .404-.01.634-.028a3.27 3.27 0 00.633-.11c.505-.138.896-.366 1.171-.687.276-.33.464-.691.565-1.085.11-.403.165-.783.165-1.14 0-.357-.055-.732-.165-1.126a2.617 2.617 0 00-.565-1.085c-.275-.33-.666-.563-1.171-.7a3.262 3.262 0 00-.633-.11 8.03 8.03 0 00-.634-.028h-4.463v6.098z" fill="url(#paint1_linear_164_4878)"/><path d="M141.153 25.82c-1.065 0-1.97-.202-2.714-.605-.734-.412-1.295-.956-1.68-1.634a4.63 4.63 0 01-.565-2.266c0-.687.106-1.314.317-1.882a3.828 3.828 0 011.019-1.497c.478-.439 1.116-.805 1.915-1.098.551-.202 1.208-.38 1.97-.536a44.29 44.29 0 012.589-.44l3.183-.48-1.35.742c0-.88-.212-1.525-.634-1.937-.423-.412-1.13-.618-2.121-.618-.551 0-1.125.133-1.722.398-.597.266-1.015.737-1.254 1.415l-3.389-1.071a5.734 5.734 0 012.122-2.994c1.038-.77 2.452-1.154 4.243-1.154 1.313 0 2.479.201 3.498.604 1.02.403 1.791 1.1 2.315 2.088.293.55.468 1.099.523 1.648.055.55.083 1.163.083 1.84v9.065h-3.279v-3.05l.469.633c-.726.997-1.511 1.72-2.356 2.17-.836.439-1.896.659-3.182.659zm.799-2.94c.689 0 1.267-.118 1.736-.356.477-.248.854-.527 1.129-.838.285-.311.478-.572.579-.783.193-.403.303-.87.33-1.4.037-.541.055-.99.055-1.347l1.102.275a137.63 137.63 0 00-2.699.467c-.689.119-1.245.229-1.667.33-.423.1-.795.21-1.116.329a3.839 3.839 0 00-.895.48 1.724 1.724 0 00-.496.55 1.48 1.48 0 00-.152.673c0 .339.083.632.248.879.175.238.418.421.73.55.312.128.684.192 1.116.192z" fill="url(#paint2_linear_164_4878)"/><path d="M154.149 32l2.866-7.856.055 2.308-6.475-15.877h3.885l4.353 11.234h-.882l4.326-11.234h3.746L157.621 32h-3.472z" fill="url(#paint3_linear_164_4878)"/><path d="M173.774 25.82c-1.874 0-3.389-.422-4.546-1.264-1.148-.851-1.846-2.05-2.094-3.598l3.83-.577c.156.696.5 1.24 1.033 1.634.542.394 1.226.591 2.052.591.68 0 1.203-.128 1.571-.385.367-.265.551-.631.551-1.098 0-.293-.074-.527-.221-.7-.147-.184-.477-.362-.992-.536-.505-.174-1.295-.403-2.369-.687-1.212-.311-2.181-.66-2.907-1.044-.725-.384-1.248-.842-1.57-1.373-.321-.54-.482-1.19-.482-1.95 0-.953.243-1.777.73-2.473.487-.704 1.171-1.245 2.053-1.62.89-.385 1.937-.577 3.14-.577 1.167 0 2.2.179 3.1.536.9.357 1.625.865 2.176 1.524.56.66.905 1.438 1.033 2.335l-3.829.687c-.064-.55-.303-.985-.717-1.305-.413-.32-.973-.508-1.68-.563-.689-.046-1.244.046-1.667.274-.413.23-.62.559-.62.99 0 .256.088.47.262.645.184.174.556.352 1.116.535.569.184 1.432.422 2.589.715 1.13.293 2.035.636 2.714 1.03.689.384 1.189.851 1.502 1.4.312.54.468 1.195.468 1.964 0 1.52-.551 2.715-1.653 3.585-1.102.87-2.626 1.305-4.573 1.305z" fill="url(#paint4_linear_164_4878)"/><path d="M56.684 25.408V5.63h12.123v3.735H60.43v4.286h6.723v3.735H60.43v8.02h-3.746zm18.204.412c-1.065 0-1.97-.202-2.714-.605-.734-.412-1.295-.956-1.68-1.634a4.636 4.636 0 01-.565-2.266c0-.687.106-1.314.317-1.882a3.827 3.827 0 011.02-1.497c.477-.439 1.115-.805 1.914-1.098.55-.202 1.208-.38 1.97-.536a44.306 44.306 0 012.59-.44l3.181-.48-1.35.742c0-.88-.21-1.525-.633-1.937-.422-.412-1.13-.618-2.121-.618-.551 0-1.125.133-1.722.398-.597.266-1.015.737-1.254 1.415l-3.388-1.071a5.732 5.732 0 012.12-2.994c1.039-.77 2.453-1.154 4.244-1.154 1.313 0 2.48.201 3.498.604 1.02.403 1.791 1.1 2.315 2.088.294.55.468 1.099.523 1.648.055.55.083 1.163.083 1.84v9.065h-3.279v-3.05l.469.633c-.726.997-1.511 1.72-2.356 2.17-.836.439-1.896.659-3.182.659zm.799-2.94c.689 0 1.267-.118 1.736-.356.477-.248.854-.527 1.13-.838.284-.311.477-.572.578-.783.193-.403.303-.87.33-1.4.037-.541.055-.99.055-1.347l1.102.275c-1.11.183-2.01.339-2.7.467-.688.119-1.244.229-1.666.33-.423.1-.795.21-1.116.329a3.849 3.849 0 00-.895.48c-.22.166-.386.349-.496.55a1.48 1.48 0 00-.152.673c0 .339.083.632.248.879.175.238.418.421.73.55.313.128.684.192 1.116.192zm21.269 2.528v-7.005c0-.338-.018-.769-.055-1.29a5.83 5.83 0 00-.344-1.594 3.004 3.004 0 00-.951-1.332c-.432-.357-1.047-.535-1.846-.535-.321 0-.666.05-1.033.15a2.52 2.52 0 00-1.033.591c-.322.284-.588.705-.8 1.264-.201.558-.302 1.3-.302 2.224l-2.15-1.016c0-1.172.24-2.27.717-3.296a5.933 5.933 0 012.15-2.486c.963-.632 2.176-.947 3.636-.947 1.166 0 2.117.196 2.851.59.735.394 1.304.893 1.708 1.497.414.604.707 1.236.882 1.895.174.65.28 1.246.317 1.786.036.54.055.934.055 1.18v8.324h-3.802zm-10.166 0V10.575h3.334v4.917h.468v9.916H86.79zm23.355.412c-1.873 0-3.388-.422-4.545-1.264-1.148-.851-1.846-2.05-2.094-3.598l3.829-.577c.156.696.501 1.24 1.033 1.634.542.394 1.226.591 2.053.591.679 0 1.203-.128 1.57-.385.368-.265.551-.631.551-1.098 0-.293-.073-.527-.22-.7-.147-.184-.478-.362-.992-.536-.505-.174-1.295-.403-2.369-.687-1.213-.311-2.181-.66-2.907-1.044-.725-.384-1.249-.842-1.57-1.373-.322-.54-.482-1.19-.482-1.95 0-.953.243-1.777.73-2.473.486-.704 1.171-1.245 2.052-1.62.891-.385 1.938-.577 3.141-.577 1.166 0 2.199.179 3.099.536.9.357 1.626.865 2.177 1.524.56.66.904 1.438 1.033 2.335l-3.83.687c-.064-.55-.303-.985-.716-1.305-.413-.32-.973-.508-1.68-.563-.689-.046-1.245.046-1.667.274-.413.23-.62.559-.62.99 0 .256.087.47.262.645.183.174.555.352 1.115.535.57.184 1.433.422 2.59.715 1.13.293 2.034.636 2.714 1.03.689.384 1.189.851 1.501 1.4.313.54.469 1.195.469 1.964 0 1.52-.551 2.715-1.653 3.585-1.102.87-2.627 1.305-4.574 1.305z" fill="#1A051D"/><defs><linearGradient id="paint0_linear_164_4878" x1="24.439" y1="12.351" x2="39.494" y2="13.108" gradientUnits="userSpaceOnUse"><stop stop-color="#4776E6"/><stop offset="1" stop-color="#8E54E9"/></linearGradient><linearGradient id="paint1_linear_164_4878" x1="124.361" y1="16.661" x2="166.761" y2="23.546" gradientUnits="userSpaceOnUse"><stop stop-color="#4776E6"/><stop offset="1" stop-color="#8E54E9"/></linearGradient><linearGradient id="paint2_linear_164_4878" x1="124.361" y1="16.661" x2="166.761" y2="23.546" gradientUnits="userSpaceOnUse"><stop stop-color="#4776E6"/><stop offset="1" stop-color="#8E54E9"/></linearGradient><linearGradient id="paint3_linear_164_4878" x1="124.361" y1="16.661" x2="166.761" y2="23.546" gradientUnits="userSpaceOnUse"><stop stop-color="#4776E6"/><stop offset="1" stop-color="#8E54E9"/></linearGradient><linearGradient id="paint4_linear_164_4878" x1="124.361" y1="16.661" x2="166.761" y2="23.546" gradientUnits="userSpaceOnUse"><stop stop-color="#4776E6"/><stop offset="1" stop-color="#8E54E9"/></linearGradient></defs></svg>